<svg width="96" height="96" xmlns="http://www.w3.org/2000/svg">

 <g>
  <title>background</title>
  <rect fill="none" id="canvas_background" height="402" width="582" y="-1" x="-1"/>
 </g>
 <g>
  <title>Layer 1</title>
  <path fill="#00bf5f" id="svg_1" d="m32,4l-16,0c-6.63,0 -12,5.37 -12,12l0,16c0,6.63 5.37,12 12,12l16,0c6.63,0 12,-5.37 12,-12l0,-16c0,-6.63 -5.37,-12 -12,-12zm4,28c0,2.21 -1.79,4 -4,4l-16,0c-2.21,0 -4,-1.79 -4,-4l0,-16c0,-2.21 1.79,-4 4,-4l16,0c2.21,0 4,1.79 4,4l0,16z"/>
  <path fill="#00bf5f" id="svg_2" d="m80,4l-16,0c-6.63,0 -12,5.37 -12,12l0,16c0,6.63 5.37,12 12,12l16,0c6.63,0 12,-5.37 12,-12l0,-16c0,-6.63 -5.37,-12 -12,-12zm4,28c0,2.21 -1.79,4 -4,4l-16,0c-2.21,0 -4,-1.79 -4,-4l0,-16c0,-2.21 1.79,-4 4,-4l16,0c2.21,0 4,1.79 4,4l0,16z"/>
  <path fill="#00bf5f" id="svg_3" d="m80,52l-16,0c-6.63,0 -12,5.37 -12,12l0,16c0,6.63 5.37,12 12,12l16,0c6.63,0 12,-5.37 12,-12l0,-16c0,-6.63 -5.37,-12 -12,-12zm4,28c0,2.21 -1.79,4 -4,4l-16,0c-2.21,0 -4,-1.79 -4,-4l0,-16c0,-2.21 1.79,-4 4,-4l16,0c2.21,0 4,1.79 4,4l0,16z"/>
  <path fill="#00bf5f" id="svg_4" d="m32,52l-16,0c-6.63,0 -12,5.37 -12,12l0,16c0,6.63 5.37,12 12,12l16,0c6.63,0 12,-5.37 12,-12l0,-16c0,-6.63 -5.37,-12 -12,-12zm4,28c0,2.21 -1.79,4 -4,4l-16,0c-2.21,0 -4,-1.79 -4,-4l0,-16c0,-2.21 1.79,-4 4,-4l16,0c2.21,0 4,1.79 4,4l0,16z"/>
 </g>
</svg>